<mxfile modified="2021-03-01T09:53:53.831Z" host="app.diagrams.net" agent="5.0 (Windows NT 10.0; Win64; x64) AppleWebKit/537.36 (KHTML, like Gecko) Chrome/88.0.4324.190 Safari/537.36" etag="rRDAivfDqNh4Ry8GdLIX" version="14.4.3" type="github">
  <diagram id="Ht1M8jgEwFfnCIfOTk4-" name="Page-1">
    <mxGraphModel dx="2076" dy="1096" grid="1" gridSize="10" guides="1" tooltips="1" connect="1" arrows="1" fold="1" page="1" pageScale="1" pageWidth="1169" pageHeight="827" math="0" shadow="0">
      <root>
        <mxCell id="0" />
        <mxCell id="1" value="Net" parent="0" />
        <mxCell id="qC7abmbwMvbMgGEpAZjR-1" value="AWS Cloud" style="points=[[0,0],[0.25,0],[0.5,0],[0.75,0],[1,0],[1,0.25],[1,0.5],[1,0.75],[1,1],[0.75,1],[0.5,1],[0.25,1],[0,1],[0,0.75],[0,0.5],[0,0.25]];outlineConnect=0;gradientColor=none;html=1;whiteSpace=wrap;fontSize=12;fontStyle=0;shape=mxgraph.aws4.group;grIcon=mxgraph.aws4.group_aws_cloud_alt;strokeColor=#232F3E;fillColor=none;verticalAlign=top;align=left;spacingLeft=30;fontColor=#232F3E;dashed=0;" vertex="1" parent="1">
          <mxGeometry x="150" y="60" width="1220" height="740" as="geometry" />
        </mxCell>
        <mxCell id="qC7abmbwMvbMgGEpAZjR-3" value="VPC" style="points=[[0,0],[0.25,0],[0.5,0],[0.75,0],[1,0],[1,0.25],[1,0.5],[1,0.75],[1,1],[0.75,1],[0.5,1],[0.25,1],[0,1],[0,0.75],[0,0.5],[0,0.25]];outlineConnect=0;gradientColor=none;html=1;whiteSpace=wrap;fontSize=12;fontStyle=0;shape=mxgraph.aws4.group;grIcon=mxgraph.aws4.group_vpc;strokeColor=#248814;fillColor=none;verticalAlign=top;align=left;spacingLeft=30;fontColor=#AAB7B8;dashed=0;" vertex="1" parent="1">
          <mxGeometry x="260" y="90" width="1080" height="680" as="geometry" />
        </mxCell>
        <mxCell id="qC7abmbwMvbMgGEpAZjR-4" value="Public subnet" style="points=[[0,0],[0.25,0],[0.5,0],[0.75,0],[1,0],[1,0.25],[1,0.5],[1,0.75],[1,1],[0.75,1],[0.5,1],[0.25,1],[0,1],[0,0.75],[0,0.5],[0,0.25]];outlineConnect=0;gradientColor=none;html=1;whiteSpace=wrap;fontSize=12;fontStyle=0;shape=mxgraph.aws4.group;grIcon=mxgraph.aws4.group_security_group;grStroke=0;strokeColor=#248814;fillColor=#E9F3E6;verticalAlign=top;align=left;spacingLeft=30;fontColor=#248814;dashed=0;" vertex="1" parent="1">
          <mxGeometry x="340" y="150" width="220" height="210" as="geometry" />
        </mxCell>
        <mxCell id="qC7abmbwMvbMgGEpAZjR-5" value="Private subnet" style="points=[[0,0],[0.25,0],[0.5,0],[0.75,0],[1,0],[1,0.25],[1,0.5],[1,0.75],[1,1],[0.75,1],[0.5,1],[0.25,1],[0,1],[0,0.75],[0,0.5],[0,0.25]];outlineConnect=0;gradientColor=none;html=1;whiteSpace=wrap;fontSize=12;fontStyle=0;shape=mxgraph.aws4.group;grIcon=mxgraph.aws4.group_security_group;grStroke=0;strokeColor=#147EBA;fillColor=#E6F2F8;verticalAlign=top;align=left;spacingLeft=30;fontColor=#147EBA;dashed=0;" vertex="1" parent="1">
          <mxGeometry x="672.5" y="150" width="235" height="210" as="geometry" />
        </mxCell>
        <mxCell id="qC7abmbwMvbMgGEpAZjR-10" value="" style="outlineConnect=0;fontColor=#232F3E;gradientColor=none;fillColor=#D86613;strokeColor=none;dashed=0;verticalLabelPosition=bottom;verticalAlign=top;align=center;html=1;fontSize=12;fontStyle=0;aspect=fixed;pointerEvents=1;shape=mxgraph.aws4.instances;" vertex="1" parent="1">
          <mxGeometry x="426" y="240" width="48" height="48" as="geometry" />
        </mxCell>
        <mxCell id="qC7abmbwMvbMgGEpAZjR-16" value="" style="points=[[0,0,0],[0.25,0,0],[0.5,0,0],[0.75,0,0],[1,0,0],[0,1,0],[0.25,1,0],[0.5,1,0],[0.75,1,0],[1,1,0],[0,0.25,0],[0,0.5,0],[0,0.75,0],[1,0.25,0],[1,0.5,0],[1,0.75,0]];outlineConnect=0;fontColor=#232F3E;gradientColor=#60A337;gradientDirection=north;fillColor=#277116;strokeColor=#ffffff;dashed=0;verticalLabelPosition=bottom;verticalAlign=top;align=center;html=1;fontSize=12;fontStyle=0;aspect=fixed;shape=mxgraph.aws4.resourceIcon;resIcon=mxgraph.aws4.s3;" vertex="1" parent="1">
          <mxGeometry x="170" y="692" width="78" height="78" as="geometry" />
        </mxCell>
        <mxCell id="qC7abmbwMvbMgGEpAZjR-17" value="Private subnet" style="points=[[0,0],[0.25,0],[0.5,0],[0.75,0],[1,0],[1,0.25],[1,0.5],[1,0.75],[1,1],[0.75,1],[0.5,1],[0.25,1],[0,1],[0,0.75],[0,0.5],[0,0.25]];outlineConnect=0;gradientColor=none;html=1;whiteSpace=wrap;fontSize=12;fontStyle=0;shape=mxgraph.aws4.group;grIcon=mxgraph.aws4.group_security_group;grStroke=0;strokeColor=#147EBA;fillColor=#E6F2F8;verticalAlign=top;align=left;spacingLeft=30;fontColor=#147EBA;dashed=0;" vertex="1" parent="1">
          <mxGeometry x="672.5" y="500" width="235" height="210" as="geometry" />
        </mxCell>
        <mxCell id="qC7abmbwMvbMgGEpAZjR-18" value="Public subnet" style="points=[[0,0],[0.25,0],[0.5,0],[0.75,0],[1,0],[1,0.25],[1,0.5],[1,0.75],[1,1],[0.75,1],[0.5,1],[0.25,1],[0,1],[0,0.75],[0,0.5],[0,0.25]];outlineConnect=0;gradientColor=none;html=1;whiteSpace=wrap;fontSize=12;fontStyle=0;shape=mxgraph.aws4.group;grIcon=mxgraph.aws4.group_security_group;grStroke=0;strokeColor=#248814;fillColor=#E9F3E6;verticalAlign=top;align=left;spacingLeft=30;fontColor=#248814;dashed=0;" vertex="1" parent="1">
          <mxGeometry x="340" y="500" width="220" height="210" as="geometry" />
        </mxCell>
        <mxCell id="qC7abmbwMvbMgGEpAZjR-19" value="" style="outlineConnect=0;fontColor=#232F3E;gradientColor=none;fillColor=#D86613;strokeColor=none;dashed=0;verticalLabelPosition=bottom;verticalAlign=top;align=center;html=1;fontSize=12;fontStyle=0;aspect=fixed;pointerEvents=1;shape=mxgraph.aws4.instances;" vertex="1" parent="1">
          <mxGeometry x="426" y="590" width="48" height="48" as="geometry" />
        </mxCell>
        <mxCell id="qC7abmbwMvbMgGEpAZjR-20" value="" style="outlineConnect=0;fontColor=#232F3E;gradientColor=none;fillColor=#D86613;strokeColor=none;dashed=0;verticalLabelPosition=bottom;verticalAlign=top;align=center;html=1;fontSize=12;fontStyle=0;aspect=fixed;pointerEvents=1;shape=mxgraph.aws4.instances;" vertex="1" parent="1">
          <mxGeometry x="766" y="590" width="48" height="48" as="geometry" />
        </mxCell>
        <mxCell id="qC7abmbwMvbMgGEpAZjR-23" value="Availability Zone" style="fillColor=none;strokeColor=#147EBA;dashed=1;verticalAlign=top;fontStyle=0;fontColor=#147EBA;" vertex="1" parent="1">
          <mxGeometry x="320" y="120" width="990" height="250" as="geometry" />
        </mxCell>
        <mxCell id="qC7abmbwMvbMgGEpAZjR-25" value="Availability Zone" style="fillColor=none;strokeColor=#147EBA;dashed=1;verticalAlign=top;fontStyle=0;fontColor=#147EBA;" vertex="1" parent="1">
          <mxGeometry x="320" y="470" width="990" height="260" as="geometry" />
        </mxCell>
        <mxCell id="qC7abmbwMvbMgGEpAZjR-26" value="Auto Scaling group" style="points=[[0,0],[0.25,0],[0.5,0],[0.75,0],[1,0],[1,0.25],[1,0.5],[1,0.75],[1,1],[0.75,1],[0.5,1],[0.25,1],[0,1],[0,0.75],[0,0.5],[0,0.25]];outlineConnect=0;gradientColor=none;html=1;whiteSpace=wrap;fontSize=12;fontStyle=0;shape=mxgraph.aws4.groupCenter;grIcon=mxgraph.aws4.group_auto_scaling_group;grStroke=1;strokeColor=#D86613;fillColor=none;verticalAlign=top;align=center;fontColor=#D86613;dashed=1;spacingTop=25;" vertex="1" parent="1">
          <mxGeometry x="385" y="170" width="130" height="490" as="geometry" />
        </mxCell>
        <mxCell id="qC7abmbwMvbMgGEpAZjR-27" value="Auto Scaling group" style="points=[[0,0],[0.25,0],[0.5,0],[0.75,0],[1,0],[1,0.25],[1,0.5],[1,0.75],[1,1],[0.75,1],[0.5,1],[0.25,1],[0,1],[0,0.75],[0,0.5],[0,0.25]];outlineConnect=0;gradientColor=none;html=1;whiteSpace=wrap;fontSize=12;fontStyle=0;shape=mxgraph.aws4.groupCenter;grIcon=mxgraph.aws4.group_auto_scaling_group;grStroke=1;strokeColor=#D86613;fillColor=none;verticalAlign=top;align=center;fontColor=#D86613;dashed=1;spacingTop=25;" vertex="1" parent="1">
          <mxGeometry x="730" y="170" width="130" height="490" as="geometry" />
        </mxCell>
        <mxCell id="qC7abmbwMvbMgGEpAZjR-28" value="" style="points=[[0,0,0],[0.25,0,0],[0.5,0,0],[0.75,0,0],[1,0,0],[0,1,0],[0.25,1,0],[0.5,1,0],[0.75,1,0],[1,1,0],[0,0.25,0],[0,0.5,0],[0,0.75,0],[1,0.25,0],[1,0.5,0],[1,0.75,0]];outlineConnect=0;fontColor=#232F3E;gradientColor=#F78E04;gradientDirection=north;fillColor=#D05C17;strokeColor=#ffffff;dashed=0;verticalLabelPosition=bottom;verticalAlign=top;align=center;html=1;fontSize=12;fontStyle=0;aspect=fixed;shape=mxgraph.aws4.resourceIcon;resIcon=mxgraph.aws4.elastic_load_balancing;" vertex="1" parent="1">
          <mxGeometry x="426" y="400" width="54" height="54" as="geometry" />
        </mxCell>
        <mxCell id="qC7abmbwMvbMgGEpAZjR-29" value="" style="points=[[0,0,0],[0.25,0,0],[0.5,0,0],[0.75,0,0],[1,0,0],[0,1,0],[0.25,1,0],[0.5,1,0],[0.75,1,0],[1,1,0],[0,0.25,0],[0,0.5,0],[0,0.75,0],[1,0.25,0],[1,0.5,0],[1,0.75,0]];outlineConnect=0;fontColor=#232F3E;gradientColor=#F78E04;gradientDirection=north;fillColor=#D05C17;strokeColor=#ffffff;dashed=0;verticalLabelPosition=bottom;verticalAlign=top;align=center;html=1;fontSize=12;fontStyle=0;aspect=fixed;shape=mxgraph.aws4.resourceIcon;resIcon=mxgraph.aws4.elastic_load_balancing;" vertex="1" parent="1">
          <mxGeometry x="760" y="400" width="54" height="54" as="geometry" />
        </mxCell>
        <mxCell id="qC7abmbwMvbMgGEpAZjR-35" style="edgeStyle=orthogonalEdgeStyle;rounded=0;orthogonalLoop=1;jettySize=auto;html=1;" edge="1" parent="1" source="qC7abmbwMvbMgGEpAZjR-32" target="qC7abmbwMvbMgGEpAZjR-28">
          <mxGeometry relative="1" as="geometry" />
        </mxCell>
        <mxCell id="qC7abmbwMvbMgGEpAZjR-32" value="" style="outlineConnect=0;fontColor=#232F3E;gradientColor=none;fillColor=#232F3E;strokeColor=none;dashed=0;verticalLabelPosition=bottom;verticalAlign=top;align=center;html=1;fontSize=12;fontStyle=0;aspect=fixed;pointerEvents=1;shape=mxgraph.aws4.internet;" vertex="1" parent="1">
          <mxGeometry x="20" y="403" width="78" height="48" as="geometry" />
        </mxCell>
        <mxCell id="qC7abmbwMvbMgGEpAZjR-34" style="edgeStyle=orthogonalEdgeStyle;rounded=0;orthogonalLoop=1;jettySize=auto;html=1;" edge="1" parent="1" source="qC7abmbwMvbMgGEpAZjR-33" target="qC7abmbwMvbMgGEpAZjR-32">
          <mxGeometry relative="1" as="geometry" />
        </mxCell>
        <mxCell id="qC7abmbwMvbMgGEpAZjR-33" value="" style="outlineConnect=0;fontColor=#232F3E;gradientColor=none;fillColor=#232F3E;strokeColor=none;dashed=0;verticalLabelPosition=bottom;verticalAlign=top;align=center;html=1;fontSize=12;fontStyle=0;aspect=fixed;pointerEvents=1;shape=mxgraph.aws4.user;" vertex="1" parent="1">
          <mxGeometry x="20" y="180" width="78" height="78" as="geometry" />
        </mxCell>
        <mxCell id="qC7abmbwMvbMgGEpAZjR-40" value="" style="edgeStyle=orthogonalEdgeStyle;html=1;endArrow=block;elbow=vertical;startArrow=block;startFill=1;endFill=1;strokeColor=#545B64;rounded=0;entryX=0;entryY=0.5;entryDx=0;entryDy=0;entryPerimeter=0;" edge="1" parent="1" target="qC7abmbwMvbMgGEpAZjR-29">
          <mxGeometry width="100" relative="1" as="geometry">
            <mxPoint x="490" y="263.5" as="sourcePoint" />
            <mxPoint x="760" y="263.5" as="targetPoint" />
          </mxGeometry>
        </mxCell>
        <mxCell id="qC7abmbwMvbMgGEpAZjR-41" value="groups" parent="0" />
        <mxCell id="qC7abmbwMvbMgGEpAZjR-43" value="" style="outlineConnect=0;fontColor=#232F3E;gradientColor=none;fillColor=#D86613;strokeColor=none;dashed=0;verticalLabelPosition=bottom;verticalAlign=top;align=center;html=1;fontSize=12;fontStyle=0;aspect=fixed;pointerEvents=1;shape=mxgraph.aws4.instances;" vertex="1" parent="qC7abmbwMvbMgGEpAZjR-41">
          <mxGeometry x="770" y="240" width="48" height="48" as="geometry" />
        </mxCell>
        <mxCell id="qC7abmbwMvbMgGEpAZjR-44" value="" style="edgeStyle=orthogonalEdgeStyle;html=1;endArrow=block;elbow=vertical;startArrow=block;startFill=1;endFill=1;strokeColor=#545B64;rounded=0;entryX=0;entryY=0.5;entryDx=0;entryDy=0;entryPerimeter=0;" edge="1" parent="qC7abmbwMvbMgGEpAZjR-41" target="qC7abmbwMvbMgGEpAZjR-29">
          <mxGeometry width="100" relative="1" as="geometry">
            <mxPoint x="490" y="610" as="sourcePoint" />
            <mxPoint x="760" y="610" as="targetPoint" />
          </mxGeometry>
        </mxCell>
        <mxCell id="qC7abmbwMvbMgGEpAZjR-46" value="Private subnet" style="points=[[0,0],[0.25,0],[0.5,0],[0.75,0],[1,0],[1,0.25],[1,0.5],[1,0.75],[1,1],[0.75,1],[0.5,1],[0.25,1],[0,1],[0,0.75],[0,0.5],[0,0.25]];outlineConnect=0;gradientColor=none;html=1;whiteSpace=wrap;fontSize=12;fontStyle=0;shape=mxgraph.aws4.group;grIcon=mxgraph.aws4.group_security_group;grStroke=0;strokeColor=#147EBA;fillColor=#E6F2F8;verticalAlign=top;align=left;spacingLeft=30;fontColor=#147EBA;dashed=0;" vertex="1" parent="qC7abmbwMvbMgGEpAZjR-41">
          <mxGeometry x="1040" y="150" width="235" height="210" as="geometry" />
        </mxCell>
        <mxCell id="qC7abmbwMvbMgGEpAZjR-47" value="" style="points=[[0,0,0],[0.25,0,0],[0.5,0,0],[0.75,0,0],[1,0,0],[0,1,0],[0.25,1,0],[0.5,1,0],[0.75,1,0],[1,1,0],[0,0.25,0],[0,0.5,0],[0,0.75,0],[1,0.25,0],[1,0.5,0],[1,0.75,0]];outlineConnect=0;fontColor=#232F3E;gradientColor=#4D72F3;gradientDirection=north;fillColor=#3334B9;strokeColor=#ffffff;dashed=0;verticalLabelPosition=bottom;verticalAlign=top;align=center;html=1;fontSize=12;fontStyle=0;aspect=fixed;shape=mxgraph.aws4.resourceIcon;resIcon=mxgraph.aws4.database;" vertex="1" parent="qC7abmbwMvbMgGEpAZjR-41">
          <mxGeometry x="1118" y="225" width="78" height="78" as="geometry" />
        </mxCell>
        <mxCell id="qC7abmbwMvbMgGEpAZjR-48" value="" style="edgeStyle=orthogonalEdgeStyle;html=1;endArrow=block;elbow=vertical;startArrow=block;startFill=1;endFill=1;strokeColor=#545B64;rounded=0;" edge="1" parent="qC7abmbwMvbMgGEpAZjR-41">
          <mxGeometry width="100" relative="1" as="geometry">
            <mxPoint x="830" y="263.28999999999996" as="sourcePoint" />
            <mxPoint x="1100" y="263.28999999999996" as="targetPoint" />
          </mxGeometry>
        </mxCell>
        <mxCell id="qC7abmbwMvbMgGEpAZjR-42" value="Elements" parent="0" />
        <mxCell id="qC7abmbwMvbMgGEpAZjR-49" value="Private subnet" style="points=[[0,0],[0.25,0],[0.5,0],[0.75,0],[1,0],[1,0.25],[1,0.5],[1,0.75],[1,1],[0.75,1],[0.5,1],[0.25,1],[0,1],[0,0.75],[0,0.5],[0,0.25]];outlineConnect=0;gradientColor=none;html=1;whiteSpace=wrap;fontSize=12;fontStyle=0;shape=mxgraph.aws4.group;grIcon=mxgraph.aws4.group_security_group;grStroke=0;strokeColor=#147EBA;fillColor=#E6F2F8;verticalAlign=top;align=left;spacingLeft=30;fontColor=#147EBA;dashed=0;" vertex="1" parent="qC7abmbwMvbMgGEpAZjR-42">
          <mxGeometry x="1040" y="500" width="235" height="210" as="geometry" />
        </mxCell>
        <mxCell id="qC7abmbwMvbMgGEpAZjR-51" value="" style="edgeStyle=orthogonalEdgeStyle;html=1;endArrow=block;elbow=vertical;startArrow=block;startFill=1;endFill=1;strokeColor=#545B64;rounded=0;" edge="1" parent="qC7abmbwMvbMgGEpAZjR-42">
          <mxGeometry width="100" relative="1" as="geometry">
            <mxPoint x="830" y="613.29" as="sourcePoint" />
            <mxPoint x="1100" y="613.29" as="targetPoint" />
          </mxGeometry>
        </mxCell>
        <mxCell id="qC7abmbwMvbMgGEpAZjR-55" value="" style="edgeStyle=orthogonalEdgeStyle;html=1;endArrow=none;elbow=vertical;startArrow=block;startFill=1;strokeColor=#545B64;rounded=0;" edge="1" parent="qC7abmbwMvbMgGEpAZjR-42">
          <mxGeometry width="100" relative="1" as="geometry">
            <mxPoint x="450" y="300" as="sourcePoint" />
            <mxPoint x="450" y="390" as="targetPoint" />
          </mxGeometry>
        </mxCell>
        <mxCell id="qC7abmbwMvbMgGEpAZjR-57" value="" style="edgeStyle=orthogonalEdgeStyle;html=1;endArrow=classic;elbow=vertical;startArrow=none;startFill=0;strokeColor=#545B64;rounded=0;endFill=1;" edge="1" parent="qC7abmbwMvbMgGEpAZjR-42">
          <mxGeometry width="100" relative="1" as="geometry">
            <mxPoint x="450" y="470" as="sourcePoint" />
            <mxPoint x="450" y="560" as="targetPoint" />
          </mxGeometry>
        </mxCell>
        <mxCell id="qC7abmbwMvbMgGEpAZjR-58" value="" style="edgeStyle=orthogonalEdgeStyle;html=1;endArrow=none;elbow=vertical;startArrow=block;startFill=1;strokeColor=#545B64;rounded=0;" edge="1" parent="qC7abmbwMvbMgGEpAZjR-42">
          <mxGeometry width="100" relative="1" as="geometry">
            <mxPoint x="790" y="300" as="sourcePoint" />
            <mxPoint x="790" y="390" as="targetPoint" />
          </mxGeometry>
        </mxCell>
        <mxCell id="qC7abmbwMvbMgGEpAZjR-59" value="" style="edgeStyle=orthogonalEdgeStyle;html=1;endArrow=classic;elbow=vertical;startArrow=none;startFill=0;strokeColor=#545B64;rounded=0;endFill=1;" edge="1" parent="qC7abmbwMvbMgGEpAZjR-42">
          <mxGeometry width="100" relative="1" as="geometry">
            <mxPoint x="790" y="470" as="sourcePoint" />
            <mxPoint x="790" y="560" as="targetPoint" />
          </mxGeometry>
        </mxCell>
        <mxCell id="qC7abmbwMvbMgGEpAZjR-60" value="" style="edgeStyle=orthogonalEdgeStyle;html=1;endArrow=none;elbow=vertical;startArrow=block;startFill=1;endFill=0;strokeColor=#545B64;rounded=0;" edge="1" parent="qC7abmbwMvbMgGEpAZjR-42">
          <mxGeometry width="100" relative="1" as="geometry">
            <mxPoint x="1156.79" y="310" as="sourcePoint" />
            <mxPoint x="1156.79" y="570" as="targetPoint" />
          </mxGeometry>
        </mxCell>
        <mxCell id="qC7abmbwMvbMgGEpAZjR-61" value="" style="outlineConnect=0;fontColor=#232F3E;gradientColor=none;fillColor=#3334B9;strokeColor=none;dashed=0;verticalLabelPosition=bottom;verticalAlign=top;align=center;html=1;fontSize=12;fontStyle=0;aspect=fixed;pointerEvents=1;shape=mxgraph.aws4.rds_postgresql_instance;" vertex="1" parent="qC7abmbwMvbMgGEpAZjR-42">
          <mxGeometry x="1118" y="580" width="78" height="78" as="geometry" />
        </mxCell>
        <mxCell id="qC7abmbwMvbMgGEpAZjR-62" value="repicate" style="text;html=1;strokeColor=none;fillColor=none;align=center;verticalAlign=middle;whiteSpace=wrap;rounded=0;" vertex="1" parent="qC7abmbwMvbMgGEpAZjR-42">
          <mxGeometry x="1180" y="414" width="40" height="20" as="geometry" />
        </mxCell>
      </root>
    </mxGraphModel>
  </diagram>
</mxfile>
